<?xml version="1.0" standalone="no"?>
<!DOCTYPE svg PUBLIC "-//W3C//DTD SVG 20010904//EN"
 "http://www.w3.org/TR/2001/REC-SVG-20010904/DTD/svg10.dtd">
<svg version="1.0" xmlns="http://www.w3.org/2000/svg"
 width="116.000000pt" height="116.000000pt" viewBox="0 0 116.000000 116.000000"
 preserveAspectRatio="xMidYMid meet">
<metadata>
Created by potrace 1.11, written by Peter Selinger 2001-2013
</metadata>
<g transform="translate(0.000000,116.000000) scale(0.100000,-0.100000)"
fill="#000000" stroke="none">
<path d="M0 580 l0 -580 575 0 575 0 0 58 c0 47 -4 63 -21 78 -17 16 -22 16
-31 4 -8 -13 -9 -12 -5 2 4 11 -18 33 -78 78 -46 34 -82 67 -80 73 2 7 9 40
15 74 12 58 11 64 -10 98 -12 19 -40 45 -61 56 -45 22 -50 34 -13 26 19 -3 33
3 55 24 16 16 26 29 21 29 -5 0 -15 -7 -22 -15 -16 -19 -30 -19 -30 1 0 8 4
13 9 10 5 -3 11 1 14 9 4 9 1 12 -9 8 -23 -8 -16 11 14 43 21 21 29 40 30 69
1 29 -1 36 -8 25 -8 -13 -12 -12 -27 4 -10 10 -12 16 -5 12 14 -8 17 10 2 19
-15 9 -12 56 5 88 8 15 10 25 5 22 -6 -4 -10 1 -10 9 0 8 5 18 10 21 6 4 8 11
4 16 -4 6 -11 6 -20 -2 -8 -6 -17 -9 -20 -6 -3 3 16 30 42 59 27 29 39 44 26
34 -12 -11 -22 -15 -22 -10 -1 5 -16 -9 -34 -30 l-34 -39 -18 34 c-10 19 -17
37 -16 42 1 4 -3 7 -8 7 -5 0 -9 6 -7 13 1 6 -7 12 -18 12 -22 0 -33 31 -16
48 6 6 11 19 11 28 0 10 8 20 18 22 9 3 -169 5 -395 6 l-413 1 0 -580z m357
288 c-3 -8 -6 -5 -6 6 -1 11 2 17 5 13 3 -3 4 -12 1 -19z m-12 -13 c81 -36
129 -50 150 -45 24 6 75 -1 75 -10 0 -5 -21 -25 -47 -45 -34 -26 -49 -32 -54
-23 -14 22 -31 -7 -35 -58 -1 -26 -6 -65 -10 -87 -8 -53 -20 -33 -39 68 -15
78 -32 118 -70 170 -44 60 -43 62 30 30z m371 -50 c3 -14 12 -25 20 -25 21 0
17 -18 -6 -30 -11 -6 -20 -19 -20 -28 0 -10 -6 -24 -12 -31 -9 -8 -9 -11 -1
-9 14 4 15 -4 8 -40 -18 -82 -89 -189 -172 -259 l-62 -53 -6 33 c-8 44 -2 90
24 168 22 66 25 69 91 97 l25 11 -30 0 c-69 2 -76 49 -10 65 l40 9 -39 11 -39
11 24 28 c21 25 27 27 52 18 24 -9 31 -7 60 19 39 36 45 37 53 5z m72 -43 c2
-6 -8 -14 -22 -18 -14 -3 -26 -10 -26 -15 0 -5 -6 -9 -12 -9 -7 1 -3 9 10 19
12 11 22 24 22 31 0 14 22 8 28 -8z m76 -181 c3 -5 -6 -11 -21 -14 -26 -5 -26
-4 -8 9 22 17 22 17 29 5z m-143 -44 l-24 -22 19 27 c10 14 21 24 23 22 3 -3
-6 -15 -18 -27z m-56 -335 c22 -16 44 -59 25 -47 -5 3 -8 -7 -8 -23 1 -34 -12
-59 -45 -90 -25 -23 -26 -24 -62 -6 -34 16 -55 46 -55 80 0 8 5 12 10 9 6 -4
10 6 11 22 0 25 1 26 9 8 7 -17 9 -14 9 13 1 18 5 31 10 28 5 -4 7 3 4 13 -4
17 -1 19 32 15 20 -2 47 -12 60 -22z m55 -86 c0 -8 -9 -24 -20 -37 l-19 -24
17 37 c19 41 22 45 22 24z m361 -23 c-12 -20 -14 -14 -5 12 4 9 9 14 11 11 3
-2 0 -13 -6 -23z"/>
<path d="M827 1141 c-4 -17 -3 -21 5 -13 5 5 8 16 6 23 -3 8 -7 3 -11 -10z"/>
<path d="M816 1102 c-3 -5 1 -9 9 -9 8 0 12 4 9 9 -3 4 -7 8 -9 8 -2 0 -6 -4
-9 -8z"/>
<path d="M995 770 c3 -5 11 -10 16 -10 6 0 7 5 4 10 -3 6 -11 10 -16 10 -6 0
-7 -4 -4 -10z"/>
<path d="M980 730 c-9 -6 -10 -10 -3 -10 6 0 15 5 18 10 8 12 4 12 -15 0z"/>
<path d="M966 684 c-24 -24 -19 -30 7 -8 12 10 24 20 26 21 2 2 -1 3 -7 3 -6
0 -18 -7 -26 -16z"/>
</g>
</svg>
